# xmcd
#
# Track frame offsets:
#	150
#	21507
#	43735
#	59947
#	74785
#	93517
#	111947
#	129360
#	147555
#	168960
#	183875
#	202672
#	226025
#	241982
#	259380
#	277047
#	295462
#	307687
#
# Disc length: 4303 seconds
#
# Revision: 2
# Processed by: cddbd v1.5.1PL0 Copyright (c) Steve Scherf et al.
# Submitted via: EZCDDA 4.3.2
#
DISCID=1510cd12
DTITLE=Various Artist - Sweet 'N' Tough The Blues From Chicago
DYEAR=1900
DGENRE=
TTITLE0=Charlie Musselwhite - The Blues Overtook Me
TTITLE1=Maurice John Vaughan - Watching Your Watch
TTITLE2=Billy Boy Arnold - Fool For You
TTITLE3=A.C. Reed - My Buddy Buddy Friends
TTITLE4=Son Seals - Gentlman From The Windy City
TTITLE5=Lonnie Brooks - A Man's Got To Do What A Man's Got To Do
TTITLE6=Hound Dog Taylor - She's Gone
TTITLE7=Big Walter Horton - Christine
TTITLE8=The Jimmy Johnson Band - Feel Like Breaking Up Somebody's Home
TTITLE9=The Sons Of Blues/Chi-Town Hustlers - The Only Thing That Saved Me
TTITLE10=Lil' Ed and The Blues Imperials - Everything I Do Brings Me CLoser To T
TTITLE10=he Blues
TTITLE11=Albert Collins - Master Charge
TTITLE12=The Kinsey Report - Love's Overdue
TTITLE13=Carey Bell - Tired Of Giving You My Love
TTITLE14=Fenton Robinson - I'm So Tired
TTITLE15=Detroit Junior - If I Hadn't Been High
TTITLE16=James Cotton - High Compression
TTITLE17=Big Twist and The Mellow Fellows - The Sweet Sound Of Rhythm and Blues
EXTD=
EXTT0=
EXTT1=
EXTT2=
EXTT3=
EXTT4=
EXTT5=
EXTT6=
EXTT7=
EXTT8=
EXTT9=
EXTT10=
EXTT11=
EXTT12=
EXTT13=
EXTT14=
EXTT15=
EXTT16=
EXTT17=
PLAYORDER=
